<svg xmlns="http://www.w3.org/2000/svg" viewBox="0 0 582.73 582.73">
  <path
    d="M556.66,158.23L446.42,51.72l-0.86-0.82c-15.36-15.29-35.69-23.79-57.32-24.02
c-22.23-0.34-43.33,8.39-59.18,24.17l-78.39,78.39L116.69,0l-5.97,0.56C82.45,3.17,55.83,15.7,35.73,35.8
c-47.66,47.66-47.66,125.15,0.15,172.92l1.86,1.83L147.9,316.98l0.78,0.75c10.03,10.03,21.67,18.09,34.27,24.02
c12.72,5.97,26.44,9.77,40.57,11.08c3.84,0.37,7.65,0.52,11.45,0.52c32.22,0,63.14-12.68,86.22-35.69l94.27-94.27l80.22,77.53
l5.37-0.04c21.7-0.22,42.1-8.8,57.47-24.17c15.59-15.59,24.2-36.29,24.2-58.33c0-22.04-8.61-42.77-24.35-58.51L556.66,158.23z
 M166.96,163.26c15.81-15.81,36.77-25.66,59-27.75l20.55-1.9l-56.57,56.61c-13.76,13.76-31.14,22.82-50.01,26.33
C142.98,196.46,152.3,177.92,166.96,163.26z M427.29,149.28c-10.52,10.48-24.46,16.37-39.31,16.52l-31.85,0.3l40.54,39.16
l-93.94,93.94c-18.09,18.05-42.4,28.04-67.72,28.04c-3.02,0-6.04-0.11-9.06-0.41c-22.23-2.05-43.18-11.9-58.96-27.71l-0.19-0.19
c-15.22-15.29-24.65-34.76-27.26-55.83c25.99-3.69,50.05-15.66,68.84-34.42L347.52,69.55c10.81-10.82,25.25-16.82,40.46-16.56
c14.84,0.15,28.79,6.04,39.31,16.52c0.07,0.07,0.11,0.11,0.15,0.19l0.3,0.3c10.37,10.59,16.07,24.58,16.07,39.38
C443.81,124.44,437.92,138.62,427.29,149.28z"
  />
  <style>
    /* Using the accent color from your theme */
    path { fill: oklch(0.48 0.2 278.36); }
    @media (prefers-color-scheme: dark) {
      path { fill: #FFF; }
    }
  </style>
</svg>
